<svg width="269" height="433" viewBox="0 0 269 433" fill="none" xmlns="http://www.w3.org/2000/svg">
<path d="M142.192 237.668C75.1617 342.373 -64.3302 372.762 -169.378 305.511C-274.426 238.261 -305.221 98.858 -238.19 -5.84697C-171.159 -110.552 -31.6673 -140.94 73.3808 -73.6898C178.429 -6.43939 209.223 132.963 142.192 237.668Z" stroke="#014A49" stroke-width="7"/>
<path d="M98.4851 209.688C31.4545 314.393 -108.037 344.781 -213.086 277.53C-318.134 210.28 -348.928 70.8773 -281.897 -33.8277C-214.866 -138.533 -75.3746 -168.921 29.6736 -101.67C134.722 -34.4201 165.516 104.983 98.4851 209.688Z" stroke="#014A49" stroke-width="7"/>
<path d="M53.5966 180.951C-13.434 285.656 -152.926 316.044 -257.974 248.793C-363.022 181.543 -393.816 42.1402 -326.786 -62.5647C-259.755 -167.27 -120.263 -197.658 -15.2149 -130.408C89.8332 -63.1572 120.627 76.2457 53.5966 180.951Z" stroke="#014A49" stroke-width="7"/>
</svg>
