    <svg width="29" height="21" viewBox="0 0 39 31" fill="none" xmlns="http://www.w3.org/2000/svg">
<path d="M0.767721 15.6402C0.705462 7.52082 7.25775 0.88474 15.4069 0.822253C23.556 0.759765 30.2093 7.29459 30.2716 15.414C30.3338 23.5333 23.7816 30.1694 15.6324 30.2319C7.48326 30.2944 0.82998 23.7596 0.767721 15.6402Z" stroke="#014A49" stroke-width="1.3"/>
<path d="M4.25319 15.6135C4.19094 7.49412 10.7432 0.858037 18.8924 0.79555C27.0415 0.733062 33.6948 7.26788 33.7571 15.3873C33.8193 23.5066 27.267 30.1427 19.1179 30.2052C10.9687 30.2677 4.31545 23.7329 4.25319 15.6135Z" stroke="#014A49" stroke-width="1.3"/>
<path d="M7.83285 15.586C7.77059 7.46665 14.3229 0.830571 22.472 0.768084C30.6212 0.705597 37.2745 7.24042 37.3367 15.3598C37.399 23.4792 30.8467 30.1153 22.6975 30.1777C14.5484 30.2402 7.8951 23.7054 7.83285 15.586Z" stroke="#014A49" stroke-width="1.3"/>
</svg>
